<svg width="40" height="40" viewBox="0 0 40 40" fill="none" xmlns="http://www.w3.org/2000/svg">
<path d="M19.7778 28.5714C20.5556 28.5714 21.213 28.3413 21.75 27.881C22.287 27.4206 22.5556 26.8571 22.5556 26.1905C22.5556 25.5238 22.287 24.9603 21.75 24.5C21.213 24.0397 20.5556 23.8095 19.7778 23.8095C19 23.8095 18.3426 24.0397 17.8056 24.5C17.2685 24.9603 17 25.5238 17 26.1905C17 26.8571 17.2685 27.4206 17.8056 27.881C18.3426 28.3413 19 28.5714 19.7778 28.5714ZM17.7778 21.2381H21.8889C21.8889 20.6984 21.9167 20.2381 21.9722 19.8571C22.0278 19.4762 22.1481 19.1111 22.3333 18.7619C22.5185 18.4127 22.75 18.0873 23.0278 17.7857C23.3056 17.4841 23.7037 17.1111 24.2222 16.6667C25.5185 15.5556 26.4352 14.627 26.9722 13.881C27.5093 13.1349 27.7778 12.2857 27.7778 11.3333C27.7778 9.65079 27.1111 8.29365 25.7778 7.2619C24.4444 6.23016 22.6481 5.71429 20.3889 5.71429C18.3519 5.71429 16.6204 6.14286 15.1944 7C13.7685 7.85714 12.7778 9.04762 12.2222 10.5714L15.8889 11.8095C16.1481 10.9524 16.6667 10.2619 17.4444 9.7381C18.2222 9.21429 19.1296 8.95238 20.1667 8.95238C21.1667 8.95238 22 9.18254 22.6667 9.64286C23.3333 10.1032 23.6667 10.7143 23.6667 11.4762C23.6667 12.0159 23.463 12.5873 23.0556 13.1905C22.6481 13.7937 21.963 14.4603 21 15.1905C20.3704 15.6349 19.8611 16.0714 19.4722 16.5C19.0833 16.9286 18.7593 17.381 18.5 17.8571C18.2407 18.3333 18.0556 18.8333 17.9444 19.3571C17.8333 19.881 17.7778 20.5079 17.7778 21.2381ZM20 40L13.3333 34.2857H4.44444C3.22222 34.2857 2.17593 33.9127 1.30556 33.1667C0.435185 32.4206 0 31.5238 0 30.4762V3.80952C0 2.7619 0.435185 1.86508 1.30556 1.11905C2.17593 0.373016 3.22222 0 4.44444 0H35.5556C36.7778 0 37.8241 0.373016 38.6944 1.11905C39.5648 1.86508 40 2.7619 40 3.80952V30.4762C40 31.5238 39.5648 32.4206 38.6944 33.1667C37.8241 33.9127 36.7778 34.2857 35.5556 34.2857H26.6667L20 40ZM4.44444 30.4762H15.1111L20 34.6667L24.8889 30.4762H35.5556V3.80952H4.44444V30.4762Z" fill="black"/>
</svg>
