<svg width="93" height="103" viewBox="0 0 93 103" fill="none" xmlns="http://www.w3.org/2000/svg">
<g clip-path="url(#clip0_228_158)">
<path d="M42.2802 0C35.4388 0 17.7542 6.61275 16.7624 21.4607C10.4233 22.2812 4.60799 27.0845 1.69303 34.0327C-0.999089 40.4501 -0.449549 46.8792 3.11991 51.5C-0.449553 56.1208 -0.999089 62.5499 1.69303 68.9673C4.60799 75.9155 10.4233 80.7188 16.7624 81.5392C17.7542 96.3872 35.4388 103 42.2802 103H43.7172V0H42.2802ZM19.6612 81.6531H23.102C25.0631 81.6531 26.7322 82.9028 27.3583 84.6418C26.3727 85.1718 25.7031 86.2084 25.7031 87.4007C25.7031 89.1321 27.1147 90.5358 28.856 90.5358C30.5972 90.5358 32.0089 89.1321 32.0089 87.4007C32.0089 86.2033 31.333 85.1632 30.3403 84.6353C29.635 81.3044 26.6582 78.7955 23.102 78.7955H18.1998C12.5578 78.5648 6.99215 74.1754 4.34585 67.8672C1.90507 62.0487 2.54049 56.2957 6.04582 52.4742C9.82242 48.5978 13.5229 47.316 15.7599 46.8996C16.3315 47.4756 17.1251 47.8331 18.0032 47.8331C19.7445 47.8331 21.1561 46.4295 21.1561 44.6982C21.1561 42.9667 19.7445 41.5633 18.0032 41.5633C16.4441 41.5633 15.1526 42.6896 14.8988 44.1679C12.4278 44.6835 8.82326 46.0137 5.12988 49.3771C2.45544 45.6021 2.13773 40.3966 4.34585 35.1328C6.75983 29.3784 11.6041 25.2313 16.7186 24.3706V32.9221C15.6182 33.4115 14.8503 34.5072 14.8503 35.7833C14.8503 37.5146 16.2619 38.9182 18.0032 38.9182C19.7445 38.9182 21.1561 37.5146 21.1561 35.7833C21.1561 34.6289 20.5268 33.623 19.5926 33.079V22.7757C19.5926 9.90853 34.2942 3.81428 40.8432 2.96201V34.3542H36.8264C33.5291 34.3542 30.2931 30.6995 30.2931 26.9762V23.8791C31.3111 23.3594 32.0089 22.3073 32.0089 21.0911C32.0089 19.3598 30.5973 17.9562 28.856 17.9562C27.1147 17.9562 25.7031 19.3598 25.7031 21.0911C25.7031 22.3074 26.4011 23.3595 27.4191 23.8793V26.9762C27.4191 32.8344 32.3857 37.2118 36.8264 37.2118H40.8432V53.6259H40.7517C40.7517 57.1628 37.8581 60.04 34.301 60.04H20.8073C20.2845 59.0277 19.2264 58.3338 18.0032 58.3338C16.2619 58.3338 14.8503 59.7373 14.8503 61.4687C14.8503 63.2 16.2619 64.6036 18.0032 64.6036C19.2263 64.6036 20.2843 63.9098 20.8071 62.8976H21.3563C21.3565 63.0231 21.3567 63.1503 21.3568 63.2984C21.3576 66.2992 23.2057 68.8779 25.8283 69.9724C26.2071 71.2811 27.4179 72.2395 28.856 72.2395C30.5973 72.2395 32.0089 70.8359 32.0089 69.1046C32.0089 67.3731 30.5973 65.9696 28.856 65.9696C27.887 65.9696 27.021 66.4052 26.4427 67.089C25.1237 66.3319 24.2315 64.9176 24.2308 63.2972C24.2307 63.1544 24.2307 63.0224 24.2305 62.8976H34.301C36.8484 62.8976 39.1585 61.8746 40.8432 60.2226V100.038C34.5421 99.2179 20.7006 93.542 19.6612 81.6531Z" fill="white"/>
<path d="M90.7972 52.8473C93.5189 57.3281 93.7511 63.1502 91.3108 68.9673C88.813 74.9211 84.1835 79.2911 78.9219 80.9387H68.6215C66.2516 80.9387 64.2465 82.5107 63.5994 84.6605C62.0723 85.0094 60.9291 86.3688 60.9291 87.9918C60.9291 89.8777 62.4721 91.412 64.3694 91.412C66.2661 91.412 67.8092 89.8777 67.8092 87.9918C67.8092 86.875 67.266 85.8847 66.4312 85.26C66.7859 84.4027 67.633 83.7963 68.6215 83.7963H75.9429C73.4195 97.0556 57.2072 103 50.7236 103H49.2866V60.281C50.9657 61.8973 53.2482 62.8976 55.7643 62.8976H68.7733C68.7731 63.0224 68.7731 63.1544 68.773 63.2972C68.7722 64.8148 67.9911 66.1535 66.8087 66.9393C66.1773 66.1736 65.2192 65.6838 64.1477 65.6838C62.2504 65.6838 60.7073 67.2181 60.7073 69.1046C60.7073 70.9911 62.2504 72.5254 64.1477 72.5254C65.8006 72.5254 67.1837 71.3606 67.5129 69.8133C69.9532 68.6442 71.6462 66.1673 71.647 63.2984C71.6471 63.1503 71.6473 63.0231 71.6474 62.8976H73.8817C74.4274 64.0715 75.6196 64.8896 77.0036 64.8896C78.9008 64.8896 80.4439 63.3553 80.4439 61.4688C80.4439 59.5823 78.9008 58.048 77.0036 58.048C75.6196 58.048 74.4274 58.8661 73.8817 60.04H55.7643C52.2072 60.04 49.3136 57.1628 49.3136 53.6259H49.2866V37.2118H56.1775C60.6181 37.2118 65.5847 32.8344 65.5847 26.9762V24.1953C66.7653 23.6528 67.5881 22.4674 67.5881 21.0913C67.5881 19.2048 66.045 17.6705 64.1477 17.6705C62.2504 17.6705 60.7073 19.2048 60.7073 21.0913C60.7073 22.4674 61.5301 23.6528 62.7107 24.1953V26.9762C62.7107 30.6995 59.4747 34.3542 56.1775 34.3542H49.2866V0H50.7236C57.565 0 75.2491 6.61264 76.2414 21.4603L76.2393 21.4608V32.6795C75.0587 33.222 74.236 34.4073 74.236 35.783C74.236 37.6695 75.779 39.2038 77.6763 39.2038C79.5736 39.2038 81.1167 37.6695 81.1167 35.783C81.1167 34.4073 80.2939 33.2219 79.1133 32.6795V22.1246C84.2954 23.8177 88.8433 28.1515 91.3106 34.0327C93.5451 39.3592 93.5392 44.6904 91.4338 48.9923L91.1894 48.6775L91.0855 48.5581C87.3613 44.7271 83.4317 43.0005 80.3296 42.2424C79.9445 40.7717 78.6017 39.6815 77.0036 39.6815C75.1063 39.6815 73.5632 41.2158 73.5632 43.1023C73.5632 44.9888 75.1063 46.5231 77.0036 46.5231C78.1732 46.5231 79.2068 45.9389 79.8286 45.0496C82.4491 45.7211 85.7657 47.2197 88.9643 50.4881L90.7972 52.8473Z" fill="white"/>
</g>
<defs>
<clipPath id="clip0_228_158">
<rect width="93" height="103" fill="white"/>
</clipPath>
</defs>
</svg>
