<svg width="40" height="40" viewBox="0 0 40 40" fill="none" xmlns="http://www.w3.org/2000/svg">
<path d="M10 40C7.24242 40 4.88636 38.6875 2.93182 36.0625C0.977273 33.4375 0 30.2292 0 26.4375C0 23.1875 0.712121 20.2917 2.13636 17.75C3.56061 15.2083 5.42424 13.5833 7.72727 12.875C8.48485 9.04167 10 5.9375 12.2727 3.5625C14.5455 1.1875 17.1212 0 20 0C23.5455 0 26.553 1.69792 29.0227 5.09375C31.4924 8.48958 32.7273 12.625 32.7273 17.5C34.8182 17.8333 36.553 19.0729 37.9318 21.2188C39.3106 23.3646 40 25.875 40 28.75C40 31.875 39.2045 34.5312 37.6136 36.7188C36.0227 38.9062 34.0909 40 31.8182 40H21.8182C20.8182 40 19.9621 39.5104 19.25 38.5312C18.5379 37.5521 18.1818 36.375 18.1818 35V22.125L15.2727 26L12.7273 22.5L20 12.5L27.2727 22.5L24.7273 26L21.8182 22.125V35H31.8182C33.0909 35 34.1667 34.3958 35.0455 33.1875C35.9242 31.9792 36.3636 30.5 36.3636 28.75C36.3636 27 35.9242 25.5208 35.0455 24.3125C34.1667 23.1042 33.0909 22.5 31.8182 22.5H29.0909V17.5C29.0909 14.0417 28.2045 11.0938 26.4318 8.65625C24.6591 6.21875 22.5152 5 20 5C17.4848 5 15.3409 6.21875 13.5682 8.65625C11.7955 11.0938 10.9091 14.0417 10.9091 17.5H10C8.24242 17.5 6.74242 18.3542 5.5 20.0625C4.25758 21.7708 3.63636 23.8333 3.63636 26.25C3.63636 28.6667 4.25758 30.7292 5.5 32.4375C6.74242 34.1458 8.24242 35 10 35H14.5455V40H10Z" fill="black"/>
</svg>
