<svg width="40" height="40" viewBox="0 0 40 40" fill="none" xmlns="http://www.w3.org/2000/svg">
<path d="M4 40C2.9 40 1.95833 39.5648 1.175 38.6944C0.391667 37.8241 0 36.7778 0 35.5556V8.88889C0 7.66667 0.391667 6.62037 1.175 5.75C1.95833 4.87963 2.9 4.44444 4 4.44444H24.2C24.0667 5.18519 24 5.92593 24 6.66667C24 7.40741 24.0667 8.14815 24.2 8.88889H4L20 20L27.3 14.9444C27.7667 15.4259 28.275 15.8426 28.825 16.1944C29.375 16.5463 29.95 16.8519 30.55 17.1111L20 24.4444L4 13.3333V35.5556H36V17.5556C36.7667 17.3704 37.4833 17.1111 38.15 16.7778C38.8167 16.4444 39.4333 16.037 40 15.5556V35.5556C40 36.7778 39.6083 37.8241 38.825 38.6944C38.0417 39.5648 37.1 40 36 40H4ZM34 13.3333C32.3333 13.3333 30.9167 12.6852 29.75 11.3889C28.5833 10.0926 28 8.51852 28 6.66667C28 4.81481 28.5833 3.24074 29.75 1.94444C30.9167 0.648148 32.3333 0 34 0C35.6667 0 37.0833 0.648148 38.25 1.94444C39.4167 3.24074 40 4.81481 40 6.66667C40 8.51852 39.4167 10.0926 38.25 11.3889C37.0833 12.6852 35.6667 13.3333 34 13.3333Z" fill="black"/>
</svg>
