<?xml version="1.0" encoding="UTF-8" standalone="no"?>
<svg
   version="1.1"
   width="868.38873"
   height="119.22919"
   viewBox="0 0 868.38873 119.22919"
   xml:space="preserve"
   id="svg11"
   xmlns="http://www.w3.org/2000/svg"
   xmlns:svg="http://www.w3.org/2000/svg">
<desc
   id="desc1">Created with Fabric.js 5.3.0</desc>
<defs
   id="defs1" />
<g
   transform="translate(419.8261,92.191539)"
   id="background-logo">
<rect
   style="opacity:1;fill:#ffffff;fill-opacity:0;fill-rule:nonzero;stroke:none;stroke-width:0;stroke-linecap:butt;stroke-linejoin:miter;stroke-miterlimit:4;stroke-dasharray:none;stroke-dashoffset:0"
   paint-order="stroke"
   x="-640"
   y="-512"
   rx="0"
   ry="0"
   width="1280"
   height="1024"
   id="rect1" />
</g>
<g
   transform="matrix(1.9211457,-0.00559274,0.00559274,1.9211457,29.832495,61.330099)"
   id="text-logo-0">
<g
   paint-order="stroke"
   id="g1">
		<g
   id="8ba0766d-fc03-4b6f-93e0-0c28902229ec-path-0">
<path
   style="opacity:1;fill:#000000;fill-rule:nonzero;stroke:none;stroke-width:0;stroke-linecap:butt;stroke-linejoin:miter;stroke-miterlimit:4;stroke-dasharray:none;stroke-dashoffset:0"
   paint-order="stroke"
   transform="translate(-16.325,17.225)"
   d="m 31.85,-33.15 -0.2,-1.45 -7.8,0.15 h -2.5 l -9.1,-0.1 L 4,-34.6 c 0.1,1.85 0.15,2.75 0.15,4.05 0,1.3 -0.05,2.2 -0.15,4.05 H 5.7 L 6,-30.05 c 0.1,-1.9 1.25,-2.25 7.6,-2.35 H 25 c -0.75,1.25 -1.25,2 -2.25,3.25 -0.65,0.9 -1.35,1.75 -2.05,2.65 L 5.6,-7.1 c -0.7,0.95 -1.65,2.05 -4.85,5.85 v 1.4 L 16.35,0 h 1.4 c 1.85,0 6.45,0.05 13.85,0.15 0,-4.3 0.05,-6.1 0.3,-8.8 h -1.7 l -0.3,2.85 c -0.4,3.35 -0.9,3.55 -8.7,3.6 H 7.55 Z"
   stroke-linecap="round"
   id="path1" />
</g>
</g>
</g>
<g
   transform="matrix(1.9211525,-0.00227158,0.00227158,1.9211525,108.56486,61.328779)"
   id="text-logo-1">
<g
   paint-order="stroke"
   id="g2">
		<g
   id="7fea5049-d772-44c9-ae6c-a897340b72c4-path-0">
<path
   style="opacity:1;fill:#000000;fill-rule:nonzero;stroke:none;stroke-width:0;stroke-linecap:butt;stroke-linejoin:miter;stroke-miterlimit:4;stroke-dasharray:none;stroke-dashoffset:0"
   paint-order="stroke"
   transform="translate(-14.85,17.225)"
   d="m 1.7,-1.35 v 1.5 C 4.95,0.05 6.45,0 7.9,0 c 0.8,0 1.9,0 3.5,0.05 3.8,0.05 6.55,0.1 8.05,0.1 1.7,0 3.75,-0.05 8.35,-0.15 0,-2.9 0.3,-5.6 0.8,-8.2 h -1.75 c -0.25,1.65 -0.4,2.7 -0.55,3.15 -0.35,1.4 -0.8,2.25 -1.25,2.45 -0.75,0.4 -4.55,0.65 -9.4,0.65 -2.6,0 -3.4,-0.05 -4.85,-0.4 v -14 c 1.3,-0.1 2.7,-0.15 5.15,-0.15 3.7,0 5.05,0.15 5.95,0.6 l 0.4,1.25 0.25,2.95 h 1.5 c -0.1,-3.3 -0.15,-4.5 -0.15,-5.55 0,-1 0.05,-2.5 0.15,-5.8 h -1.5 l -0.25,2.6 c -0.05,0.45 -0.15,0.9 -0.4,1.3 -0.9,0.4 -2.3,0.55 -5.6,0.55 -2.4,0 -3.75,-0.05 -5.5,-0.15 V -32.1 c 1.55,-0.35 2.55,-0.4 5.95,-0.4 2.65,0 5.6,0.3 7.15,0.7 1.2,0.3 1.35,0.55 1.35,1.7 v 3.25 H 27 c 0,-3 0.25,-5.4 0.8,-7.6 -2.4,-0.1 -3.9,-0.15 -6.2,-0.15 -1.3,0 -2.95,0 -4.95,0.05 -3.25,0.05 -5.55,0.1 -6.65,0.1 -2.05,0 -4.15,-0.05 -8.9,-0.15 v 1.5 l 2.4,0.15 c 2.3,0.15 2.5,0.45 2.55,4.5 V -6 C 6,-1.95 5.85,-1.7 3.5,-1.5 Z"
   stroke-linecap="round"
   id="path2" />
</g>
</g>
</g>
<g
   transform="matrix(1.9211534,0.00127269,-0.00127269,1.9211534,192.83624,60.943469)"
   id="text-logo-2">
<g
   paint-order="stroke"
   id="g3">
		<g
   id="1e70e95c-4441-473a-8fe8-f54ecc6f7692-path-0">
<path
   style="opacity:1;fill:#000000;fill-rule:nonzero;stroke:none;stroke-width:0;stroke-linecap:butt;stroke-linejoin:miter;stroke-miterlimit:4;stroke-dasharray:none;stroke-dashoffset:0"
   paint-order="stroke"
   transform="translate(-19.275,17.425)"
   d="m 20.4,-35 h -1.6 c -0.8,2 -1.6,3.95 -1.95,4.75 -0.8,1.8 -1.8,4.15 -2.65,6.05 L 5.3,-3.95 C 4.7,-2.5 3.7,-1.6 2.6,-1.5 l -1.85,0.15 v 1.5 C 4.15,0.05 5.25,0 6.2,0 7.05,0 8.6,0.05 12.25,0.15 v -1.5 L 10.4,-1.5 C 8.65,-1.65 8,-2 8,-2.8 8,-3.5 8.7,-5.55 9.75,-8.1 l 1.4,-3.35 h 14.4 l 2.3,5.75 c 0.9,2.25 1.05,2.7 1.05,3.2 0,0.55 -0.75,0.9 -2.05,1 l -2.35,0.15 v 1.5 C 28.6,0.05 30.4,0 31.45,0 c 1.1,0 2.45,0.05 6.35,0.15 v -1.5 L 36.1,-1.5 c -1.3,-0.2 -1.85,-1 -3.6,-5.1 z m -8.4,21.55 6.35,-14.9 6.3,14.9 z"
   stroke-linecap="round"
   id="path3" />
</g>
</g>
</g>
<g
   transform="matrix(1.9211466,0.00526316,-0.00526316,1.9211466,287.8919,62.144499)"
   id="text-logo-3">
<g
   paint-order="stroke"
   id="g4">
		<g
   id="d34c8cb6-26f3-40b7-aa52-6a14b2684dfa-path-0">
<path
   style="opacity:1;fill:#000000;fill-rule:nonzero;stroke:none;stroke-width:0;stroke-linecap:butt;stroke-linejoin:miter;stroke-miterlimit:4;stroke-dasharray:none;stroke-dashoffset:0"
   paint-order="stroke"
   transform="translate(-20.75,16.8)"
   d="m 0.85,-1.35 v 1.5 C 4.45,0.05 5.65,0 6.65,0 c 0.95,0 2.45,0.05 6,0.15 v -1.5 L 10.45,-1.5 C 8.1,-1.7 7.95,-1.95 7.9,-6 V -29.2 L 31.55,0.2 36.05,1 c 0,-0.2 0,-0.25 -0.05,-0.6 -0.05,-0.5 -0.1,-1 -0.1,-1.25 v -27.6 c 0.05,-4.05 0.2,-4.3 2.55,-4.5 l 2.2,-0.15 v -1.5 c -3.25,0.1 -4.85,0.15 -5.95,0.15 -1.1,0 -2.45,-0.05 -5.85,-0.15 v 1.5 l 2.2,0.15 c 2.35,0.2 2.5,0.45 2.55,4.5 V -4.9 L 9.55,-34.6 6.85,-34.45 C 4,-34.5 3.65,-34.5 0.85,-34.6 v 1.5 l 2.2,0.15 c 2.35,0.2 2.5,0.45 2.55,4.5 V -6 c -0.05,4.05 -0.2,4.3 -2.55,4.5 z"
   stroke-linecap="round"
   id="path4" />
</g>
</g>
</g>
<g
   transform="matrix(0.47691679,0,0,0.47691679,395.04513,59.614619)"
   id="shape-df9a22b3-31b3-499f-ae40-b75bd6c38c2f">
<g
   paint-order="stroke"
   id="g6">
		<g
   transform="translate(-59.469265)"
   id="path-02">
<path
   style="opacity:1;fill:#0f906a;fill-rule:nonzero;stroke:none;stroke-width:1;stroke-linecap:butt;stroke-linejoin:miter;stroke-miterlimit:4;stroke-dasharray:none;stroke-dashoffset:0"
   paint-order="stroke"
   transform="translate(-52.753081,-125.00001)"
   d="m 102.03816,2e-5 c -16.51097,0 -59.19049,16.05037 -61.58423,52.0892 -15.29852,1.99139 -29.33311,13.64986 -36.36802,30.5144 -6.4971,15.57623 -5.17085,31.18091 3.44362,42.39639 -8.61448,11.21548 -9.94072,26.82016 -3.44362,42.39639 7.03491,16.86454 21.0695,28.52301 36.36802,30.5144 C 42.84767,233.94963 85.52719,250 102.03816,250 h 3.46801 V 2e-5 Z M 47.44989,198.18716 h 8.30391 c 4.73295,0 8.76112,3.03315 10.27228,7.25403 -2.37867,1.28662 -3.99464,3.80262 -3.99464,6.69657 0,4.20225 3.40671,7.6093 7.60896,7.6093 4.20225,0 7.60913,-3.40705 7.60913,-7.6093 0,-2.90649 -1.63122,-5.43095 -4.02699,-6.71215 -1.702,-8.08479 -8.88626,-14.17446 -17.46873,-14.17446 H 43.92296 C 30.3068,190.69132 16.8747,180.03736 10.48818,164.72631 4.59765,150.60366 6.13116,136.64019 14.59086,127.36463 c 9.11436,-9.40866 18.04498,-12.52005 23.44376,-13.53065 1.37958,1.39804 3.29478,2.26572 5.41385,2.26572 4.20259,0 7.60913,-3.40671 7.60913,-7.60896 0,-4.20259 -3.40654,-7.60896 -7.60913,-7.60896 -3.76265,0 -6.87946,2.73377 -7.49195,6.322 -5.96352,1.2514 -14.66266,4.47996 -23.57619,12.64366 C 5.92591,110.68465 5.15915,98.05013 10.48817,85.27371 16.31402,71.30685 28.00516,61.24116 40.34826,59.15189 v 20.75623 c -2.65553,1.18772 -4.50875,3.84732 -4.50875,6.94448 0,4.20225 3.40671,7.60896 7.60896,7.60896 4.20259,0 7.60913,-3.40671 7.60913,-7.60896 0,-2.80184 -1.51861,-5.24333 -3.77332,-6.56381 V 55.28087 c 0,-31.23103 35.4807,-46.0229 51.28587,-48.09151 v 76.19456 h -9.69416 c -7.95745,0 -15.76724,-8.87051 -15.76724,-17.90765 v -7.51718 c 2.45673,-1.26156 4.14078,-3.81515 4.14078,-6.76702 0,-4.20225 -3.40671,-7.60896 -7.60913,-7.60896 -4.20242,0 -7.60896,3.40671 -7.60896,7.60896 0,2.95221 1.68439,5.5058 4.14129,6.76736 v 7.51684 c 0,14.21883 11.9863,24.84367 22.70326,24.84367 h 9.69416 v 39.84009 h -0.22081 c 0,8.58467 -6.98343,15.5681 -15.5681,15.5681 h -32.5654 c -1.26156,-2.45707 -3.81515,-4.14129 -6.76736,-4.14129 -4.20225,0 -7.60896,3.40671 -7.60896,7.60896 0,4.20225 3.40671,7.60896 7.60896,7.60896 2.95187,0 5.50529,-1.68388 6.76702,-4.14061 h 1.3254 c 5.1e-4,0.30447 10e-4,0.61334 0.0012,0.97267 0.002,7.28349 4.46201,13.5425 10.79129,16.19905 0.91425,3.17641 3.83631,5.50275 7.30703,5.50275 4.20242,0 7.60913,-3.40671 7.60913,-7.60896 0,-4.20259 -3.40671,-7.6093 -7.60913,-7.6093 -2.33853,0 -4.42848,1.05734 -5.82415,2.71717 -3.18318,-1.83764 -5.33646,-5.27042 -5.33816,-9.20343 -1.7e-4,-0.3468 -3.4e-4,-0.66719 -6.8e-4,-0.96996 h 24.30382 c 6.14792,0 11.72315,-2.48315 15.78892,-6.49269 v 96.63921 C 83.36325,240.82028 49.95845,227.04376 47.4499,198.18716 Z"
   stroke-linecap="round"
   id="path5" />
</g>
		<g
   transform="translate(59.473694)"
   id="path-01">
<path
   style="opacity:1;fill:#0a8e67;fill-rule:nonzero;stroke:none;stroke-width:1;stroke-linecap:butt;stroke-linejoin:miter;stroke-miterlimit:4;stroke-dasharray:none;stroke-dashoffset:0"
   paint-order="stroke"
   transform="translate(-171.69604,-125)"
   d="m 219.12813,128.2702 c 6.56854,10.87579 7.12903,25.0069 1.2395,39.12616 -6.02802,14.45087 -17.20081,25.05774 -29.89917,29.05676 H 165.6097 c -5.71948,0 -10.55847,3.81549 -12.12006,9.03345 -3.68561,0.84698 -6.44464,4.14636 -6.44464,8.08582 0,4.57745 3.72406,8.30151 8.30292,8.30151 4.57751,0 8.30157,-3.72406 8.30157,-8.30151 0,-2.71075 -1.31104,-5.11432 -3.32581,-6.63055 0.85602,-2.08081 2.90039,-3.55267 5.28601,-3.55267 h 17.66943 c -6.08984,32.18268 -45.21637,46.61084 -60.86371,46.61084 h -3.46802 V 146.313 c 4.05219,3.92322 9.56073,6.35114 15.63312,6.35114 h 31.39563 c -3.7e-4,0.3028 -4.9e-4,0.62317 -6.7e-4,0.96997 -0.002,3.68341 -1.88708,6.93262 -4.74072,8.84003 -1.52374,-1.85864 -3.836,-3.04736 -6.42194,-3.04736 -4.57886,0 -8.30292,3.724 -8.30292,8.30286 0,4.57886 3.72406,8.30292 8.30292,8.30292 3.98907,0 7.32703,-2.82721 8.1214,-6.58276 5.88947,-2.83777 9.97522,-8.84955 9.97723,-15.81299 1.8e-4,-0.35931 7.3e-4,-0.66821 0.001,-0.97266 h 5.39233 c 1.31677,2.84924 4.19409,4.8349 7.53412,4.8349 4.57886,0 8.30286,-3.72406 8.30286,-8.30292 0,-4.57886 -3.724,-8.30286 -8.30286,-8.30286 -3.34003,0 -6.21735,1.9856 -7.53412,4.83484 H 134.5805 c -8.58466,0 -15.56812,-6.9834 -15.56812,-15.56805 h -0.065 V 90.31997 h 16.63019 c 10.71692,0 22.70325,-10.62488 22.70325,-24.84369 v -6.74976 c 2.84924,-1.31677 4.8349,-4.19409 4.8349,-7.53412 0,-4.57886 -3.72406,-8.30286 -8.30292,-8.30286 -4.57886,0 -8.30292,3.724 -8.30292,8.30286 0,3.34003 1.98566,6.21735 4.8349,7.53412 v 6.74976 c 0,9.03711 -7.80975,17.90765 -15.76721,17.90765 H 118.94738 V 0 h 3.46802 c 16.5108,0 59.18939,16.05011 61.58411,52.08801 l -0.005,0.0012 v 27.22998 c -2.84924,1.31677 -4.8349,4.19379 -4.8349,7.53278 0,4.57886 3.72406,8.30286 8.30292,8.30286 4.57886,0 8.30286,-3.724 8.30286,-8.30286 0,-3.33899 -1.9856,-6.21637 -4.83484,-7.53278 V 53.70044 c 12.50629,4.10962 23.48212,14.62836 29.43671,28.90314 5.3927,12.92853 5.37848,25.86816 0.29736,36.30981 l -0.58997,-0.76404 -0.25061,-0.28992 c -8.98804,-9.29858 -18.47156,-13.48932 -25.95825,-15.32935 -0.92932,-3.56964 -4.17004,-6.21564 -8.02686,-6.21564 -4.57886,0 -8.30292,3.724 -8.30292,8.30286 0,4.57886 3.72406,8.30292 8.30292,8.30292 2.82281,0 5.31714,-1.41803 6.81781,-3.57642 6.32434,1.6297 14.32855,5.26709 22.04791,13.20013 l 4.4231,5.72626 z"
   stroke-linecap="round"
   id="path6" />
</g>
</g>
</g>
<g
   transform="matrix(1.9211415,-0.00688468,0.00688468,1.9211415,505.91946,61.736309)"
   id="tagline-11dc691c-4848-4b77-8ba0-3a4ddfc511ca-logo-0">
<g
   paint-order="stroke"
   id="g7">
		<g
   id="b2f8f3b7-3b98-4a53-82f1-2925b75a4f2d-path-0">
<path
   style="opacity:1;fill:#000000;fill-rule:nonzero;stroke:none;stroke-width:0;stroke-linecap:butt;stroke-linejoin:miter;stroke-miterlimit:4;stroke-dasharray:none;stroke-dashoffset:0"
   paint-order="stroke"
   transform="translate(-18.75,17.225)"
   d="m 32.05,-25.8 h 1.55 c 0,-2.6 0.3,-4.85 1,-7.6 -5.55,-1.6 -8.1,-2.05 -12.05,-2.05 -12.95,0 -21.45,7.3 -21.45,18.45 0,10.75 7.8,18 19.5,18 3.55,0 7,-0.65 13.8,-2.55 v -8.4 c 0,-1.6 0.05,-1.65 0.55,-1.85 l 1.45,-0.5 -0.2,-1.25 c -3,0.1 -4.45,0.1 -6.15,0.1 -1.7,0 -3.05,0 -6.1,-0.1 v 1.5 l 4.15,0.35 c 1.3,0.1 1.7,0.55 1.7,1.75 v 5.05 c 0,1.2 -0.1,1.8 -0.3,2.2 -0.55,0.9 -3.5,1.6 -6.8,1.6 -10,0 -16.25,-6.6 -16.25,-17.05 0,-9.6 5.4,-15.2 14.8,-15.2 2.55,0 4.75,0.3 6.65,0.9 2.9,0.95 4.15,2.1 4.15,4 z"
   stroke-linecap="round"
   id="path7" />
</g>
</g>
</g>
<g
   transform="matrix(1.9211511,-0.00326543,0.00326543,1.9211511,593.54988,61.274759)"
   id="tagline-11dc691c-4848-4b77-8ba0-3a4ddfc511ca-logo-1">
<g
   paint-order="stroke"
   id="g8">
		<g
   id="70ec7930-da5a-4770-a96a-de755625c6ae-path-0">
<path
   style="opacity:1;fill:#000000;fill-rule:nonzero;stroke:none;stroke-width:0;stroke-linecap:butt;stroke-linejoin:miter;stroke-miterlimit:4;stroke-dasharray:none;stroke-dashoffset:0"
   paint-order="stroke"
   transform="translate(-17.275,17.225)"
   d="m 10.8,-32.1 c 1.75,-0.45 3.2,-0.6 4.9,-0.6 5.2,0 8.1,2.4 8.1,6.65 0,4.6 -3.6,7.5 -9.45,7.5 -0.3,0 -0.8,0 -1.45,-0.05 l -0.3,0.6 c 0.55,0.65 0.7,0.8 1.3,1.5 0.7,0.8 0.9,1.05 1.3,1.6 l 9.2,12.35 c 0.85,1.1 1.55,2 2.05,2.7 2.05,-0.1 2.8,-0.15 3.4,-0.15 0.55,0 1.25,0.05 3.6,0.15 v -1.5 c -1.6,-0.15 -2.4,-0.45 -3.05,-1.3 l -11.35,-14.8 c 2.8,-0.7 4.1,-1.25 5.75,-2.4 2.65,-1.85 4,-4.35 4,-7.25 0,-4.85 -3.5,-7.5 -9.8,-7.5 -0.4,0 -0.4,0 -2.3,0.05 l -2.25,0.05 c -2.55,0.05 -2.6,0.05 -4.15,0.05 -2.05,0 -4.2,-0.05 -8.85,-0.15 v 1.5 l 2.05,0.15 c 2.35,0.2 2.5,0.45 2.55,4.5 V -6 C 6,-2 5.8,-1.6 3.5,-1.5 l -2.4,0.15 v 1.5 C 4.05,0.05 5.8,0 8.4,0 11,0 12.8,0.05 15.75,0.15 v -1.5 L 13.35,-1.5 C 11.05,-1.6 10.85,-1.95 10.8,-6 Z"
   stroke-linecap="round"
   id="path8" />
</g>
</g>
</g>
<g
   transform="matrix(1.9211538,3.8416806e-4,-3.8416806e-4,1.9211538,678.92419,60.892789)"
   id="tagline-11dc691c-4848-4b77-8ba0-3a4ddfc511ca-logo-2">
<g
   paint-order="stroke"
   id="g9">
		<g
   id="716b0462-a8ec-4398-a23f-660b3ae8958e-path-0">
<path
   style="opacity:1;fill:#000000;fill-rule:nonzero;stroke:none;stroke-width:0;stroke-linecap:butt;stroke-linejoin:miter;stroke-miterlimit:4;stroke-dasharray:none;stroke-dashoffset:0"
   paint-order="stroke"
   transform="translate(-19.275,17.425)"
   d="m 20.4,-35 h -1.6 c -0.8,2 -1.6,3.95 -1.95,4.75 -0.8,1.8 -1.8,4.15 -2.65,6.05 L 5.3,-3.95 C 4.7,-2.5 3.7,-1.6 2.6,-1.5 l -1.85,0.15 v 1.5 C 4.15,0.05 5.25,0 6.2,0 7.05,0 8.6,0.05 12.25,0.15 v -1.5 L 10.4,-1.5 C 8.65,-1.65 8,-2 8,-2.8 8,-3.5 8.7,-5.55 9.75,-8.1 l 1.4,-3.35 h 14.4 l 2.3,5.75 c 0.9,2.25 1.05,2.7 1.05,3.2 0,0.55 -0.75,0.9 -2.05,1 l -2.35,0.15 v 1.5 C 28.6,0.05 30.4,0 31.45,0 c 1.1,0 2.45,0.05 6.35,0.15 v -1.5 L 36.1,-1.5 c -1.3,-0.2 -1.85,-1 -3.6,-5.1 z m -8.4,21.55 6.35,-14.9 6.3,14.9 z"
   stroke-linecap="round"
   id="path9" />
</g>
</g>
</g>
<g
   transform="matrix(1.9211504,0.00361927,-0.00361927,1.9211504,756.02395,61.277069)"
   id="tagline-11dc691c-4848-4b77-8ba0-3a4ddfc511ca-logo-3">
<g
   paint-order="stroke"
   id="g10">
		<g
   id="0bdf3100-deeb-4c61-99dc-e06d3b03f992-path-0">
<path
   style="opacity:1;fill:#000000;fill-rule:nonzero;stroke:none;stroke-width:0;stroke-linecap:butt;stroke-linejoin:miter;stroke-miterlimit:4;stroke-dasharray:none;stroke-dashoffset:0"
   paint-order="stroke"
   transform="translate(-15.325,17.225)"
   d="m 8,-1.35 v 1.5 C 10.95,0.05 12.7,0 15.3,0 c 2.6,0 4.4,0.05 7.35,0.15 v -1.5 L 20.25,-1.5 C 17.95,-1.6 17.75,-2 17.7,-6 v -21.15 c 0,-2.55 0.05,-3.55 0.2,-5 h 7.75 c 1.45,0.05 1.9,0.4 2,1.65 l 0.2,3.95 h 1.55 c 0,-3.25 0.1,-5.2 0.35,-8.05 l -6.65,0.1 c -2.85,0.05 -3.35,0.05 -4.15,0.05 h -7.9 c -0.6,0 -3.25,-0.05 -6.75,-0.1 L 0.9,-34.6 c 0.25,2.85 0.35,4.8 0.35,8.05 H 2.8 L 3,-30.5 c 0.1,-1.25 0.5,-1.6 2,-1.65 h 7.75 c 0.15,1.55 0.2,2.7 0.2,5 V -6 c -0.05,4.05 -0.25,4.4 -2.55,4.5 z"
   stroke-linecap="round"
   id="path10" />
</g>
</g>
</g>
<g
   transform="matrix(1.9211416,0.00685435,-0.00685435,1.9211416,832.9097,61.348429)"
   id="tagline-11dc691c-4848-4b77-8ba0-3a4ddfc511ca-logo-4">
<g
   paint-order="stroke"
   id="g11">
		<g
   id="4909d95b-52a8-43e0-8541-a43905c0f5db-path-0">
<path
   style="opacity:1;fill:#000000;fill-rule:nonzero;stroke:none;stroke-width:0;stroke-linecap:butt;stroke-linejoin:miter;stroke-miterlimit:4;stroke-dasharray:none;stroke-dashoffset:0"
   paint-order="stroke"
   transform="translate(-19.275,17.425)"
   d="m 20.4,-35 h -1.6 c -0.8,2 -1.6,3.95 -1.95,4.75 -0.8,1.8 -1.8,4.15 -2.65,6.05 L 5.3,-3.95 C 4.7,-2.5 3.7,-1.6 2.6,-1.5 l -1.85,0.15 v 1.5 C 4.15,0.05 5.25,0 6.2,0 7.05,0 8.6,0.05 12.25,0.15 v -1.5 L 10.4,-1.5 C 8.65,-1.65 8,-2 8,-2.8 8,-3.5 8.7,-5.55 9.75,-8.1 l 1.4,-3.35 h 14.4 l 2.3,5.75 c 0.9,2.25 1.05,2.7 1.05,3.2 0,0.55 -0.75,0.9 -2.05,1 l -2.35,0.15 v 1.5 C 28.6,0.05 30.4,0 31.45,0 c 1.1,0 2.45,0.05 6.35,0.15 v -1.5 L 36.1,-1.5 c -1.3,-0.2 -1.85,-1 -3.6,-5.1 z m -8.4,21.55 6.35,-14.9 6.3,14.9 z"
   stroke-linecap="round"
   id="path11" />
</g>
</g>
</g>
</svg>
