<svg width="40" height="40" viewBox="0 0 40 40" fill="none" xmlns="http://www.w3.org/2000/svg">
<path d="M37.2 40L27.8 30.1053C26.4333 31.2281 24.925 32.1053 23.275 32.7368C21.625 33.3684 19.8667 33.6842 18 33.6842C15 33.6842 12.2917 32.9123 9.875 31.3684C7.45833 29.8246 5.55 27.7895 4.15 25.2632H9.05C10.1833 26.5614 11.5083 27.5877 13.025 28.3421C14.5417 29.0965 16.2 29.4737 18 29.4737C21.3333 29.4737 24.1667 28.2456 26.5 25.7895C28.8333 23.3333 30 20.3509 30 16.8421C30 13.3333 28.8333 10.3509 26.5 7.89474C24.1667 5.4386 21.3333 4.21053 18 4.21053C14.8667 4.21053 12.1583 5.32456 9.875 7.55263C7.59167 9.7807 6.31667 12.5263 6.05 15.7895H2.05C2.31667 11.3333 3.975 7.58772 7.025 4.55263C10.075 1.51754 13.7333 0 18 0C22.4667 0 26.25 1.63158 29.35 4.89474C32.45 8.1579 34 12.1404 34 16.8421C34 18.807 33.7 20.6579 33.1 22.3947C32.5 24.1316 31.6667 25.7193 30.6 27.1579L40 37.0526L37.2 40ZM15.85 25.2632L12.7 14.3158L10.1 22.1053H0V18.9474H8L11.3 8.94737H14.3L17.35 19.6842L19.5 12.6316H22.5L25.5 18.9474H27V22.1053H23.65L21.3 17.1579L18.8 25.2632H15.85Z" fill="black"/>
</svg>
