<svg width="40" height="40" viewBox="0 0 40 40" fill="none" xmlns="http://www.w3.org/2000/svg">
<path d="M4 40C2.9 40 1.95833 39.5877 1.175 38.7632C0.391667 37.9386 0 36.9474 0 35.7895V12.6316C0 11.4737 0.391667 10.4825 1.175 9.6579C1.95833 8.83333 2.9 8.42105 4 8.42105H12V4.21053C12 3.05263 12.3917 2.0614 13.175 1.23684C13.9583 0.412281 14.9 0 16 0H24C25.1 0 26.0417 0.412281 26.825 1.23684C27.6083 2.0614 28 3.05263 28 4.21053V8.42105H36C37.1 8.42105 38.0417 8.83333 38.825 9.6579C39.6083 10.4825 40 11.4737 40 12.6316V35.7895C40 36.9474 39.6083 37.9386 38.825 38.7632C38.0417 39.5877 37.1 40 36 40H4ZM16 8.42105H24V4.21053H16V8.42105ZM36 27.3684H26V31.5789H14V27.3684H4V35.7895H36V27.3684ZM18 27.3684H22V23.1579H18V27.3684ZM4 23.1579H14V18.9474H26V23.1579H36V12.6316H4V23.1579Z" fill="black"/>
</svg>
