<?xml version="1.0" encoding="UTF-8" standalone="no"?>
<svg
   version="1.1"
   width="394.85034"
   height="439.80878"
   viewBox="0 0 394.85034 439.80878"
   xml:space="preserve"
   id="svg11"
   sodipodi:docname="zean_grata_icon.svg"
   inkscape:version="1.4.2 (f4327f4, 2025-05-13)"
   xmlns:inkscape="http://www.inkscape.org/namespaces/inkscape"
   xmlns:sodipodi="http://sodipodi.sourceforge.net/DTD/sodipodi-0.dtd"
   xmlns="http://www.w3.org/2000/svg"
   xmlns:svg="http://www.w3.org/2000/svg"><sodipodi:namedview
   id="namedview1"
   pagecolor="#ffffff"
   bordercolor="#000000"
   borderopacity="0.25"
   inkscape:showpageshadow="2"
   inkscape:pageopacity="0.0"
   inkscape:pagecheckerboard="0"
   inkscape:deskcolor="#d1d1d1"
   inkscape:zoom="0.75488281"
   inkscape:cx="688.84864"
   inkscape:cy="498.75291"
   inkscape:window-width="1920"
   inkscape:window-height="991"
   inkscape:window-x="-9"
   inkscape:window-y="-9"
   inkscape:window-maximized="1"
   inkscape:current-layer="svg11"><inkscape:page
     x="0"
     y="0"
     width="394.85034"
     height="439.80878"
     id="page2"
     margin="0"
     bleed="0" /></sodipodi:namedview>
<desc
   id="desc1">Created with Fabric.js 5.3.0</desc>
<defs
   id="defs1" />
<g
   transform="translate(221.37026,229.96125)"
   id="background-logo">
<rect
   style="opacity:1;fill:#ffffff;fill-opacity:0;fill-rule:nonzero;stroke:none;stroke-width:0;stroke-linecap:butt;stroke-linejoin:miter;stroke-miterlimit:4;stroke-dasharray:none;stroke-dashoffset:0"
   paint-order="stroke"
   x="-640"
   y="-512"
   rx="0"
   ry="0"
   width="1280"
   height="1024"
   id="rect1" />
</g>




<g
   transform="matrix(1.759235,0,0,1.759235,197.42549,219.90438)"
   id="shape-df9a22b3-31b3-499f-ae40-b75bd6c38c2f">
<g
   paint-order="stroke"
   id="g6">
		<g
   transform="translate(-59.469265)"
   id="path-02">
<path
   style="opacity:1;fill:#0f906a;fill-rule:nonzero;stroke:none;stroke-width:1;stroke-linecap:butt;stroke-linejoin:miter;stroke-miterlimit:4;stroke-dasharray:none;stroke-dashoffset:0"
   paint-order="stroke"
   transform="translate(-52.753081,-125.00001)"
   d="m 102.03816,2e-5 c -16.51097,0 -59.19049,16.05037 -61.58423,52.0892 -15.29852,1.99139 -29.33311,13.64986 -36.36802,30.5144 -6.4971,15.57623 -5.17085,31.18091 3.44362,42.39639 -8.61448,11.21548 -9.94072,26.82016 -3.44362,42.39639 7.03491,16.86454 21.0695,28.52301 36.36802,30.5144 C 42.84767,233.94963 85.52719,250 102.03816,250 h 3.46801 V 2e-5 Z M 47.44989,198.18716 h 8.30391 c 4.73295,0 8.76112,3.03315 10.27228,7.25403 -2.37867,1.28662 -3.99464,3.80262 -3.99464,6.69657 0,4.20225 3.40671,7.6093 7.60896,7.6093 4.20225,0 7.60913,-3.40705 7.60913,-7.6093 0,-2.90649 -1.63122,-5.43095 -4.02699,-6.71215 -1.702,-8.08479 -8.88626,-14.17446 -17.46873,-14.17446 H 43.92296 C 30.3068,190.69132 16.8747,180.03736 10.48818,164.72631 4.59765,150.60366 6.13116,136.64019 14.59086,127.36463 c 9.11436,-9.40866 18.04498,-12.52005 23.44376,-13.53065 1.37958,1.39804 3.29478,2.26572 5.41385,2.26572 4.20259,0 7.60913,-3.40671 7.60913,-7.60896 0,-4.20259 -3.40654,-7.60896 -7.60913,-7.60896 -3.76265,0 -6.87946,2.73377 -7.49195,6.322 -5.96352,1.2514 -14.66266,4.47996 -23.57619,12.64366 C 5.92591,110.68465 5.15915,98.05013 10.48817,85.27371 16.31402,71.30685 28.00516,61.24116 40.34826,59.15189 v 20.75623 c -2.65553,1.18772 -4.50875,3.84732 -4.50875,6.94448 0,4.20225 3.40671,7.60896 7.60896,7.60896 4.20259,0 7.60913,-3.40671 7.60913,-7.60896 0,-2.80184 -1.51861,-5.24333 -3.77332,-6.56381 V 55.28087 c 0,-31.23103 35.4807,-46.0229 51.28587,-48.09151 v 76.19456 h -9.69416 c -7.95745,0 -15.76724,-8.87051 -15.76724,-17.90765 v -7.51718 c 2.45673,-1.26156 4.14078,-3.81515 4.14078,-6.76702 0,-4.20225 -3.40671,-7.60896 -7.60913,-7.60896 -4.20242,0 -7.60896,3.40671 -7.60896,7.60896 0,2.95221 1.68439,5.5058 4.14129,6.76736 v 7.51684 c 0,14.21883 11.9863,24.84367 22.70326,24.84367 h 9.69416 v 39.84009 h -0.22081 c 0,8.58467 -6.98343,15.5681 -15.5681,15.5681 h -32.5654 c -1.26156,-2.45707 -3.81515,-4.14129 -6.76736,-4.14129 -4.20225,0 -7.60896,3.40671 -7.60896,7.60896 0,4.20225 3.40671,7.60896 7.60896,7.60896 2.95187,0 5.50529,-1.68388 6.76702,-4.14061 h 1.3254 c 5.1e-4,0.30447 10e-4,0.61334 0.0012,0.97267 0.002,7.28349 4.46201,13.5425 10.79129,16.19905 0.91425,3.17641 3.83631,5.50275 7.30703,5.50275 4.20242,0 7.60913,-3.40671 7.60913,-7.60896 0,-4.20259 -3.40671,-7.6093 -7.60913,-7.6093 -2.33853,0 -4.42848,1.05734 -5.82415,2.71717 -3.18318,-1.83764 -5.33646,-5.27042 -5.33816,-9.20343 -1.7e-4,-0.3468 -3.4e-4,-0.66719 -6.8e-4,-0.96996 h 24.30382 c 6.14792,0 11.72315,-2.48315 15.78892,-6.49269 v 96.63921 C 83.36325,240.82028 49.95845,227.04376 47.4499,198.18716 Z"
   stroke-linecap="round"
   id="path5" />
</g>
		<g
   transform="translate(59.473694)"
   id="path-01">
<path
   style="opacity:1;fill:#0a8e67;fill-rule:nonzero;stroke:none;stroke-width:1;stroke-linecap:butt;stroke-linejoin:miter;stroke-miterlimit:4;stroke-dasharray:none;stroke-dashoffset:0"
   paint-order="stroke"
   transform="translate(-171.69604,-125)"
   d="m 219.12813,128.2702 c 6.56854,10.87579 7.12903,25.0069 1.2395,39.12616 -6.02802,14.45087 -17.20081,25.05774 -29.89917,29.05676 H 165.6097 c -5.71948,0 -10.55847,3.81549 -12.12006,9.03345 -3.68561,0.84698 -6.44464,4.14636 -6.44464,8.08582 0,4.57745 3.72406,8.30151 8.30292,8.30151 4.57751,0 8.30157,-3.72406 8.30157,-8.30151 0,-2.71075 -1.31104,-5.11432 -3.32581,-6.63055 0.85602,-2.08081 2.90039,-3.55267 5.28601,-3.55267 h 17.66943 c -6.08984,32.18268 -45.21637,46.61084 -60.86371,46.61084 h -3.46802 V 146.313 c 4.05219,3.92322 9.56073,6.35114 15.63312,6.35114 h 31.39563 c -3.7e-4,0.3028 -4.9e-4,0.62317 -6.7e-4,0.96997 -0.002,3.68341 -1.88708,6.93262 -4.74072,8.84003 -1.52374,-1.85864 -3.836,-3.04736 -6.42194,-3.04736 -4.57886,0 -8.30292,3.724 -8.30292,8.30286 0,4.57886 3.72406,8.30292 8.30292,8.30292 3.98907,0 7.32703,-2.82721 8.1214,-6.58276 5.88947,-2.83777 9.97522,-8.84955 9.97723,-15.81299 1.8e-4,-0.35931 7.3e-4,-0.66821 0.001,-0.97266 h 5.39233 c 1.31677,2.84924 4.19409,4.8349 7.53412,4.8349 4.57886,0 8.30286,-3.72406 8.30286,-8.30292 0,-4.57886 -3.724,-8.30286 -8.30286,-8.30286 -3.34003,0 -6.21735,1.9856 -7.53412,4.83484 H 134.5805 c -8.58466,0 -15.56812,-6.9834 -15.56812,-15.56805 h -0.065 V 90.31997 h 16.63019 c 10.71692,0 22.70325,-10.62488 22.70325,-24.84369 v -6.74976 c 2.84924,-1.31677 4.8349,-4.19409 4.8349,-7.53412 0,-4.57886 -3.72406,-8.30286 -8.30292,-8.30286 -4.57886,0 -8.30292,3.724 -8.30292,8.30286 0,3.34003 1.98566,6.21735 4.8349,7.53412 v 6.74976 c 0,9.03711 -7.80975,17.90765 -15.76721,17.90765 H 118.94738 V 0 h 3.46802 c 16.5108,0 59.18939,16.05011 61.58411,52.08801 l -0.005,0.0012 v 27.22998 c -2.84924,1.31677 -4.8349,4.19379 -4.8349,7.53278 0,4.57886 3.72406,8.30286 8.30292,8.30286 4.57886,0 8.30286,-3.724 8.30286,-8.30286 0,-3.33899 -1.9856,-6.21637 -4.83484,-7.53278 V 53.70044 c 12.50629,4.10962 23.48212,14.62836 29.43671,28.90314 5.3927,12.92853 5.37848,25.86816 0.29736,36.30981 l -0.58997,-0.76404 -0.25061,-0.28992 c -8.98804,-9.29858 -18.47156,-13.48932 -25.95825,-15.32935 -0.92932,-3.56964 -4.17004,-6.21564 -8.02686,-6.21564 -4.57886,0 -8.30292,3.724 -8.30292,8.30286 0,4.57886 3.72406,8.30292 8.30292,8.30292 2.82281,0 5.31714,-1.41803 6.81781,-3.57642 6.32434,1.6297 14.32855,5.26709 22.04791,13.20013 l 4.4231,5.72626 z"
   stroke-linecap="round"
   id="path6" />
</g>
</g>
</g>





</svg>
