<svg width="245" height="69" viewBox="0 0 245 69" fill="none" xmlns="http://www.w3.org/2000/svg">
<path d="M79.2614 37V34.5966L87.7415 22.9716H79.2699V19.5455H93.0767V21.9489L84.5966 33.5739H93.0682V37H79.2614ZM95.657 37V19.5455H107.827V22.9716H99.8757V26.5511H107.205V29.9858H99.8757V33.5739H107.827V37H95.657ZM114.245 37H109.711L115.6 19.5455H121.217L127.106 37H122.572L118.472 23.9432H118.336L114.245 37ZM113.64 30.1307H123.117V33.3352H113.64V30.1307ZM143.84 19.5455V37H140.261L133.315 26.9261H133.204V37H128.985V19.5455H132.616L139.485 29.6023H139.63V19.5455H143.84ZM163.104 25.2472C163.007 24.8892 162.865 24.5739 162.678 24.3011C162.49 24.0227 162.26 23.7869 161.987 23.5938C161.714 23.4006 161.402 23.2557 161.05 23.1591C160.697 23.0568 160.311 23.0057 159.891 23.0057C159.044 23.0057 158.311 23.2102 157.692 23.6193C157.078 24.0284 156.604 24.625 156.268 25.4091C155.933 26.1875 155.766 27.1335 155.766 28.2472C155.766 29.3665 155.928 30.321 156.251 31.1108C156.575 31.9006 157.044 32.5028 157.658 32.9176C158.271 33.3324 159.016 33.5398 159.891 33.5398C160.663 33.5398 161.317 33.4148 161.851 33.1648C162.391 32.9091 162.8 32.5483 163.078 32.0824C163.357 31.6165 163.496 31.0682 163.496 30.4375L164.28 30.5312H160.036V27.4545H167.561V29.7642C167.561 31.3267 167.229 32.6648 166.564 33.7784C165.905 34.892 164.996 35.7472 163.837 36.3438C162.683 36.9403 161.357 37.2386 159.857 37.2386C158.192 37.2386 156.729 36.8778 155.467 36.1562C154.206 35.4347 153.223 34.4062 152.518 33.071C151.814 31.7301 151.462 30.1392 151.462 28.2983C151.462 26.8665 151.675 25.5966 152.101 24.4886C152.527 23.375 153.121 22.4318 153.882 21.6591C154.649 20.8864 155.536 20.3011 156.541 19.9034C157.553 19.5057 158.641 19.3068 159.805 19.3068C160.817 19.3068 161.757 19.4517 162.626 19.7415C163.501 20.0312 164.274 20.4403 164.945 20.9688C165.621 21.4972 166.169 22.125 166.589 22.8523C167.01 23.5795 167.271 24.3778 167.374 25.2472H163.104ZM170.048 37V19.5455H177.258C178.565 19.5455 179.692 19.7812 180.641 20.2528C181.596 20.7187 182.332 21.3892 182.849 22.2642C183.366 23.1335 183.624 24.1648 183.624 25.358C183.624 26.5682 183.36 27.5966 182.832 28.4432C182.303 29.2841 181.553 29.9261 180.582 30.3693C179.61 30.8068 178.46 31.0256 177.13 31.0256H172.57V27.7017H176.346C176.982 27.7017 177.513 27.6193 177.94 27.4545C178.371 27.2841 178.698 27.0284 178.92 26.6875C179.141 26.3409 179.252 25.8977 179.252 25.358C179.252 24.8182 179.141 24.3722 178.92 24.0199C178.698 23.6619 178.371 23.3949 177.94 23.2188C177.508 23.0369 176.977 22.946 176.346 22.946H174.266V37H170.048ZM179.874 29.0227L184.221 37H179.619L175.357 29.0227H179.874ZM189.714 37H185.18L191.069 19.5455H196.685L202.575 37H198.04L193.941 23.9432H193.805L189.714 37ZM189.109 30.1307H198.586V33.3352H189.109V30.1307ZM201.703 22.9716V19.5455H216.456V22.9716H211.163V37H207.004V22.9716H201.703ZM220.112 37H215.578L221.467 19.5455H227.084L232.973 37H228.439L224.339 23.9432H224.203L220.112 37ZM219.507 30.1307H228.984V33.3352H219.507V30.1307Z" fill="white"/>
<path d="M78 41.7727H233.536V43.4091H78V41.7727Z" fill="white"/>
<path d="M82.6165 46.4545V61H79.1009V46.4545H82.6165ZM84.3477 49.3097V46.4545H96.6417V49.3097H92.2312V61H88.7653V49.3097H84.3477ZM107.748 61.206C106.597 61.206 105.61 60.9692 104.786 60.4957C103.967 60.0223 103.337 59.3641 102.897 58.5213C102.457 57.6738 102.237 56.6937 102.237 55.581C102.237 54.4635 102.457 53.4834 102.897 52.6406C103.342 51.7931 103.974 51.1326 104.793 50.6591C105.617 50.1856 106.6 49.9489 107.741 49.9489C108.749 49.9489 109.628 50.1312 110.376 50.4957C111.129 50.8603 111.716 51.3764 112.137 52.044C112.563 52.7069 112.788 53.4858 112.812 54.3807H109.566C109.5 53.822 109.31 53.384 108.998 53.0668C108.69 52.7495 108.288 52.5909 107.79 52.5909C107.388 52.5909 107.035 52.7045 106.732 52.9318C106.429 53.1544 106.192 53.4858 106.022 53.9261C105.856 54.3617 105.773 54.9015 105.773 55.5455C105.773 56.1894 105.856 56.7339 106.022 57.179C106.192 57.6193 106.429 57.9531 106.732 58.1804C107.035 58.4029 107.388 58.5142 107.79 58.5142C108.112 58.5142 108.397 58.4455 108.643 58.3082C108.894 58.1709 109.1 57.9697 109.261 57.7045C109.422 57.4347 109.523 57.108 109.566 56.7244H112.812C112.779 57.6241 112.554 58.41 112.137 59.0824C111.725 59.7547 111.145 60.2779 110.397 60.652C109.654 61.0213 108.771 61.206 107.748 61.206ZM119.681 61.206C118.536 61.206 117.551 60.9716 116.727 60.5028C115.908 60.0294 115.276 59.3712 114.831 58.5284C114.39 57.6809 114.17 56.6984 114.17 55.581C114.17 54.4588 114.39 53.4763 114.831 52.6335C115.276 51.786 115.908 51.1278 116.727 50.6591C117.551 50.1856 118.536 49.9489 119.681 49.9489C120.827 49.9489 121.81 50.1856 122.629 50.6591C123.453 51.1278 124.085 51.786 124.525 52.6335C124.97 53.4763 125.193 54.4588 125.193 55.581C125.193 56.6984 124.97 57.6809 124.525 58.5284C124.085 59.3712 123.453 60.0294 122.629 60.5028C121.81 60.9716 120.827 61.206 119.681 61.206ZM119.703 58.5852C120.119 58.5852 120.472 58.4574 120.761 58.2017C121.05 57.946 121.27 57.5909 121.422 57.1364C121.578 56.6818 121.656 56.1562 121.656 55.5597C121.656 54.9536 121.578 54.4233 121.422 53.9688C121.27 53.5142 121.05 53.1591 120.761 52.9034C120.472 52.6477 120.119 52.5199 119.703 52.5199C119.272 52.5199 118.907 52.6477 118.609 52.9034C118.315 53.1591 118.091 53.5142 117.934 53.9688C117.783 54.4233 117.707 54.9536 117.707 55.5597C117.707 56.1562 117.783 56.6818 117.934 57.1364C118.091 57.5909 118.315 57.946 118.609 58.2017C118.907 58.4574 119.272 58.5852 119.703 58.5852ZM130.445 54.7784V61H126.972V50.0909H130.275V52.0938H130.395C130.637 51.4261 131.049 50.9029 131.631 50.5241C132.213 50.1406 132.907 49.9489 133.712 49.9489C134.479 49.9489 135.144 50.1217 135.708 50.4673C136.276 50.8082 136.716 51.2865 137.029 51.902C137.346 52.5128 137.502 53.2277 137.498 54.0469V61H134.025V54.7287C134.029 54.1226 133.875 53.6491 133.563 53.3082C133.255 52.9673 132.827 52.7969 132.277 52.7969C131.913 52.7969 131.591 52.8774 131.311 53.0384C131.037 53.1946 130.824 53.4195 130.672 53.7131C130.525 54.0066 130.45 54.3617 130.445 54.7784ZM149.172 53.4219L145.983 53.5071C145.95 53.2798 145.86 53.0786 145.713 52.9034C145.566 52.7235 145.375 52.5838 145.138 52.4844C144.906 52.3802 144.636 52.3281 144.328 52.3281C143.926 52.3281 143.582 52.4086 143.298 52.5696C143.019 52.7306 142.882 52.9484 142.886 53.223C142.882 53.4361 142.967 53.6207 143.142 53.777C143.322 53.9332 143.642 54.0587 144.101 54.1534L146.203 54.5511C147.292 54.7595 148.102 55.1051 148.632 55.5881C149.167 56.071 149.437 56.7102 149.442 57.5057C149.437 58.2538 149.214 58.9048 148.774 59.4588C148.339 60.0128 147.742 60.4437 146.984 60.7514C146.227 61.0545 145.36 61.206 144.385 61.206C142.827 61.206 141.598 60.8864 140.699 60.2472C139.804 59.6032 139.293 58.7415 139.165 57.6619L142.595 57.5767C142.671 57.9744 142.867 58.2775 143.185 58.4858C143.502 58.6941 143.907 58.7983 144.399 58.7983C144.844 58.7983 145.206 58.7154 145.486 58.5497C145.765 58.384 145.907 58.1638 145.912 57.8892C145.907 57.643 145.798 57.4465 145.585 57.2997C145.372 57.1482 145.038 57.0298 144.584 56.9446L142.68 56.5824C141.587 56.3835 140.772 56.0166 140.237 55.4815C139.702 54.9418 139.437 54.2552 139.442 53.4219C139.437 52.6927 139.631 52.0701 140.024 51.554C140.417 51.0331 140.976 50.6354 141.7 50.3608C142.425 50.0862 143.279 49.9489 144.264 49.9489C145.741 49.9489 146.906 50.259 147.759 50.8793C148.611 51.4948 149.082 52.3423 149.172 53.4219ZM158.19 56.2912V50.0909H161.656V61H158.346V58.9688H158.233C157.991 59.6364 157.579 60.1667 156.997 60.5597C156.419 60.9479 155.721 61.142 154.902 61.142C154.158 61.142 153.505 60.9716 152.941 60.6307C152.378 60.2898 151.94 59.8139 151.627 59.2031C151.315 58.5876 151.156 57.8679 151.152 57.044V50.0909H154.625V56.3622C154.629 56.9541 154.786 57.4205 155.093 57.7614C155.401 58.1023 155.82 58.2727 156.35 58.2727C156.696 58.2727 157.006 58.197 157.281 58.0455C157.56 57.8892 157.78 57.6643 157.941 57.3707C158.107 57.0724 158.19 56.7126 158.19 56.2912ZM167.339 46.4545V61H163.866V46.4545H167.339ZM175.708 50.0909V52.6477H168.826V50.0909H175.708ZM170.267 47.4773H173.74V57.5696C173.74 57.7827 173.774 57.9555 173.84 58.0881C173.911 58.2159 174.013 58.3082 174.145 58.3651C174.278 58.4171 174.436 58.4432 174.621 58.4432C174.754 58.4432 174.893 58.4313 175.04 58.4077C175.192 58.3793 175.305 58.3556 175.381 58.3366L175.907 60.8438C175.741 60.8911 175.507 60.9503 175.203 61.0213C174.905 61.0923 174.548 61.1373 174.131 61.1562C173.317 61.1941 172.618 61.0994 172.036 60.8722C171.458 60.6402 171.016 60.2803 170.708 59.7926C170.405 59.3049 170.258 58.6918 170.267 57.9531V47.4773ZM177.48 61V50.0909H180.953V61H177.48ZM179.22 48.8196C178.732 48.8196 178.313 48.6586 177.963 48.3366C177.612 48.0099 177.437 47.617 177.437 47.1577C177.437 46.7031 177.612 46.3149 177.963 45.9929C178.313 45.6662 178.732 45.5028 179.22 45.5028C179.712 45.5028 180.131 45.6662 180.477 45.9929C180.827 46.3149 181.002 46.7031 181.002 47.1577C181.002 47.617 180.827 48.0099 180.477 48.3366C180.131 48.6586 179.712 48.8196 179.22 48.8196ZM186.636 54.7784V61H183.163V50.0909H186.466V52.0938H186.587C186.828 51.4261 187.24 50.9029 187.822 50.5241C188.405 50.1406 189.098 49.9489 189.903 49.9489C190.67 49.9489 191.336 50.1217 191.899 50.4673C192.467 50.8082 192.908 51.2865 193.22 51.902C193.537 52.5128 193.694 53.2277 193.689 54.0469V61H190.216V54.7287C190.221 54.1226 190.067 53.6491 189.754 53.3082C189.446 52.9673 189.018 52.7969 188.469 52.7969C188.104 52.7969 187.782 52.8774 187.503 53.0384C187.228 53.1946 187.015 53.4195 186.864 53.7131C186.717 54.0066 186.641 54.3617 186.636 54.7784ZM200.924 65.3182C199.887 65.3182 199 65.1738 198.261 64.8849C197.522 64.5961 196.942 64.2008 196.521 63.6989C196.1 63.197 195.846 62.6288 195.761 61.9943L199.049 61.8097C199.111 62.0322 199.225 62.2263 199.39 62.392C199.561 62.5578 199.781 62.6856 200.051 62.7756C200.325 62.8655 200.647 62.9105 201.017 62.9105C201.599 62.9105 202.08 62.7685 202.458 62.4844C202.842 62.205 203.034 61.715 203.034 61.0142V59.0966H202.913C202.776 59.4328 202.567 59.7334 202.288 59.9986C202.009 60.2637 201.661 60.4721 201.244 60.6236C200.832 60.7751 200.359 60.8509 199.824 60.8509C199.028 60.8509 198.299 60.6662 197.636 60.2969C196.978 59.9228 196.45 59.3452 196.052 58.5639C195.659 57.7779 195.463 56.767 195.463 55.5312C195.463 54.2576 195.666 53.2088 196.074 52.3849C196.481 51.5563 197.013 50.9432 197.672 50.5455C198.334 50.1477 199.047 49.9489 199.809 49.9489C200.382 49.9489 200.872 50.0483 201.279 50.2472C201.691 50.4413 202.03 50.6922 202.295 51C202.56 51.3078 202.761 51.6274 202.899 51.9588H202.998V50.0909H206.457V61.0426C206.457 61.9659 206.225 62.7448 205.761 63.3793C205.297 64.0137 204.648 64.4943 203.815 64.821C202.982 65.1525 202.018 65.3182 200.924 65.3182ZM201.031 58.3224C201.452 58.3224 201.812 58.2112 202.11 57.9886C202.409 57.7661 202.638 57.4465 202.799 57.0298C202.96 56.6132 203.041 56.1136 203.041 55.5312C203.041 54.9394 202.96 54.4304 202.799 54.0043C202.643 53.5734 202.413 53.242 202.11 53.0099C201.812 52.7779 201.452 52.6619 201.031 52.6619C200.6 52.6619 200.235 52.7803 199.937 53.017C199.639 53.2538 199.412 53.5876 199.255 54.0185C199.104 54.4446 199.028 54.9489 199.028 55.5312C199.028 56.1136 199.106 56.6132 199.262 57.0298C199.419 57.4465 199.644 57.7661 199.937 57.9886C200.235 58.2112 200.6 58.3224 201.031 58.3224Z" fill="white"/>
<path d="M34.5 60.375C32.4875 60.375 30.7865 59.6802 29.3969 58.2906C28.0073 56.901 27.3125 55.2 27.3125 53.1875C27.3125 51.175 28.0073 49.474 29.3969 48.0844C30.7865 46.6948 32.4875 46 34.5 46C36.5125 46 38.2135 46.6948 39.6031 48.0844C40.9927 49.474 41.6875 51.175 41.6875 53.1875C41.6875 55.2 40.9927 56.901 39.6031 58.2906C38.2135 59.6802 36.5125 60.375 34.5 60.375ZM18.2563 44.1313L12.2188 37.95C15.0458 35.1229 18.3641 32.8828 22.1734 31.2297C25.9828 29.5766 30.0917 28.75 34.5 28.75C38.9083 28.75 43.0172 29.5885 46.8266 31.2656C50.6359 32.9427 53.9542 35.2188 56.7812 38.0938L50.7437 44.1313C48.6354 42.0229 46.1917 40.3698 43.4125 39.1719C40.6333 37.974 37.6625 37.375 34.5 37.375C31.3375 37.375 28.3667 37.974 25.5875 39.1719C22.8083 40.3698 20.3646 42.0229 18.2563 44.1313ZM6.0375 31.9125L0 25.875C4.40833 21.3708 9.55937 17.849 15.4531 15.3094C21.3469 12.7698 27.6958 11.5 34.5 11.5C41.3042 11.5 47.6531 12.7698 53.5469 15.3094C59.4406 17.849 64.5917 21.3708 69 25.875L62.9625 31.9125C59.2729 28.2229 54.9964 25.3359 50.1328 23.2516C45.2693 21.1672 40.0583 20.125 34.5 20.125C28.9417 20.125 23.7307 21.1672 18.8672 23.2516C14.0036 25.3359 9.72708 28.2229 6.0375 31.9125Z" fill="white"/>
</svg>
