<?xml version="1.0" encoding="UTF-8" standalone="no"?>
<svg
   version="1.1"
   width="269.78763"
   height="317.87411"
   viewBox="0 0 269.78763 317.87411"
   xml:space="preserve"
   id="svg40"
   xmlns="http://www.w3.org/2000/svg"
   xmlns:svg="http://www.w3.org/2000/svg">
<desc
   id="desc1">Created with Fabric.js 5.3.0</desc>
<defs
   id="defs1" />
<g
   transform="translate(166.9769,165.22457)"
   id="background-logo">
<rect
   style="opacity:1;fill:#ffffff;fill-opacity:0;fill-rule:nonzero;stroke:none;stroke-width:0;stroke-linecap:butt;stroke-linejoin:miter;stroke-miterlimit:4;stroke-dasharray:none;stroke-dashoffset:0"
   paint-order="stroke"
   x="-640"
   y="-512"
   rx="0"
   ry="0"
   width="1280"
   height="1024"
   id="rect1" />
</g>











<g
   transform="matrix(1.9211538,0,0,1.9211538,134.89381,158.93705)"
   id="tagline-bd7f24c3-d416-4cfd-8d78-6478ca360de0-logo">
<g
   paint-order="stroke"
   id="g18">
		<g
   id="tagline-bd7f24c3-d416-4cfd-8d78-6478ca360de0-logo-path-0">
<path
   style="opacity:1;fill:#dbbc90;fill-rule:nonzero;stroke:none;stroke-width:0;stroke-linecap:butt;stroke-linejoin:miter;stroke-miterlimit:4;stroke-dasharray:none;stroke-dashoffset:0"
   paint-order="stroke"
   transform="translate(-65.115,64.91)"
   d="m -5.1,-5.31 v 0 q 0,-10.61 15.71,-10.71 v 0 q 9.81,0 27.93,5.41 v 0 q 18.02,-19.02 39.94,-55.15 v 0 q -12.32,0.2 -26.63,2.2 v 0 l -6.91,1 q 0.8,-14.32 30.53,-14.32 v 0 q 3.11,0 9.21,0.41 v 0 q 16.82,-29.93 23.93,-48.55 v 0 q -4.71,-1.2 -15.97,-5.66 -11.26,-4.45 -22.12,-7.81 -10.86,-3.35 -18.87,-3.35 v 0 q -23.12,0 -23.12,29.53 v 0 q 0,4.5 0.8,7.11 v 0 q -11.11,-2 -11.11,-14.72 v 0 q 0,-13.51 10.46,-20.62 10.46,-7.1 29.18,-7.1 v 0 q 15.21,0 38.13,6.6 22.93,6.61 32.74,6.61 v 0 q 4.5,0 6.6,-0.5 v 0 q -5.5,4.7 -10.31,7.21 v 0 q -9.81,23.62 -26.62,52.45 v 0 q 18.41,1.8 21.72,1.9 v 0 q -3.31,4.7 -7.81,5.7 -4.5,1 -19.22,1.41 v 0 Q 70.17,-28.73 48.35,-7.81 v 0 Q 84.88,3.7 98.6,3.7 v 0 q 8.2,0 14.51,-3.3 v 0 Q 107,17.82 91.59,17.82 v 0 q -3.5,0 -7.86,-0.9 -4.35,-0.9 -7.56,-1.86 -3.2,-0.95 -9.35,-3.4 -6.16,-2.45 -8.56,-3.45 v 0 L 48.75,3.7 Q 41.54,0.2 39.94,-0.4 v 0 Q 25.22,11.11 13.71,11.11 v 0 Q 5.31,11.11 0.1,5.96 -5.1,0.8 -5.1,-5.31 Z m 5.3,-0.4 v 0 q 0,3.91 3.6,7.56 3.61,3.66 8.91,3.66 v 0 q 7.61,0 18.82,-9.61 v 0 Q 15.92,-10.61 8.21,-10.61 v 0 q -0.1,0 -0.2,0 v 0 q 0,0 -0.2,0 v 0 q -7.61,0 -7.61,4.9 z"
   stroke-linecap="round"
   id="path17" />
</g>
</g>
</g>






















</svg>
