<?xml version="1.0" encoding="UTF-8" standalone="no"?>
<svg
   version="1.1"
   width="379.12051"
   height="200.2803"
   viewBox="0 0 379.12051 200.2803"
   xml:space="preserve"
   id="svg33"
   xmlns="http://www.w3.org/2000/svg"
   xmlns:svg="http://www.w3.org/2000/svg">
<desc
   id="desc1">Created with Fabric.js 5.3.0</desc>
<defs
   id="defs1" />
<g
   transform="translate(193.40622,109.35976)"
   id="background-logo">
<rect
   style="opacity:1;fill:#ffffff;fill-opacity:0;fill-rule:nonzero;stroke:none;stroke-width:0;stroke-linecap:butt;stroke-linejoin:miter;stroke-miterlimit:4;stroke-dasharray:none;stroke-dashoffset:0"
   paint-order="stroke"
   x="-640"
   y="-512"
   rx="0"
   ry="0"
   width="1280"
   height="1024"
   id="rect1" />
</g>











<g
   transform="matrix(1.9211538,0,0,1.9211538,189.56025,100.14013)"
   id="tagline-bd7f24c3-d416-4cfd-8d78-6478ca360de0-logo">
<g
   paint-order="stroke"
   id="g18">
		<g
   id="tagline-bd7f24c3-d416-4cfd-8d78-6478ca360de0-logo-path-0">
<path
   style="opacity:1;fill:#dbbc90;fill-rule:nonzero;stroke:none;stroke-width:0;stroke-linecap:butt;stroke-linejoin:miter;stroke-miterlimit:4;stroke-dasharray:none;stroke-dashoffset:0"
   paint-order="stroke"
   transform="translate(-100.82,49.265)"
   d="m 91.09,-94.81 -0.57,-4.15 -22.31,0.43 h -7.15 l -26.02,-0.28 -23.6,-0.15 c 0.29,5.29 0.43,7.87 0.43,11.59 0,3.71 -0.14,6.29 -0.43,11.58 h 4.86 l 0.86,-10.15 c 0.29,-5.44 3.58,-6.44 21.74,-6.72 h 32.6 c -2.14,3.57 -3.57,5.72 -6.43,9.29 -1.86,2.57 -3.87,5.01 -5.87,7.58 l -43.18,55.48 c -2.01,2.72 -4.72,5.87 -13.87,16.73 V 0.43 L 46.76,0 h 4.01 c 5.29,0 18.44,0.14 39.61,0.43 0,-12.3 0.14,-17.45 0.85,-25.17 h -4.86 l -0.86,8.15 c -1.14,9.58 -2.57,10.15 -24.88,10.3 H 21.59 Z m 95.95,21.02 h 4.44 c 0,-7.43 0.86,-13.87 2.86,-21.73 -15.88,-4.58 -23.17,-5.87 -34.47,-5.87 -37.03,0 -61.34,20.88 -61.34,52.77 0,30.74 22.31,51.48 55.77,51.48 10.15,0 20.02,-1.86 39.47,-7.29 v -24.03 c 0,-4.57 0.14,-4.72 1.57,-5.29 l 4.15,-1.43 -0.58,-3.57 c -8.58,0.28 -12.72,0.28 -17.59,0.28 -4.86,0 -8.72,0 -17.44,-0.28 v 4.29 l 11.87,1 c 3.72,0.28 4.86,1.57 4.86,5 v 14.45 c 0,3.43 -0.29,5.14 -0.86,6.29 -1.57,2.57 -10.01,4.57 -19.45,4.57 -28.6,0 -46.47,-18.87 -46.47,-48.76 0,-27.46 15.44,-43.47 42.33,-43.47 7.29,0 13.58,0.86 19.02,2.57 8.29,2.72 11.86,6.01 11.86,11.44 z"
   stroke-linecap="round"
   id="path17" />
</g>
</g>
</g>








</svg>
